<svg width="405px" height="130px" viewBox="0 0 405 130" version="1.1"
    xmlns="http://www.w3.org/2000/svg" xmlns:xlink="http://www.w3.org/1999/xlink">
    <g id="页面-1" stroke="none" stroke-width="1" fill="none" fill-rule="evenodd">
        <g id="MacBook-Pro-14&quot;" transform="translate(-408, -293)">
            <g id="编组" transform="translate(408, 293)">
                <path
                    d="M28.7141386,66.2655631 L28.7141386,66.2655631 C28.7141386,62.5004236 29.4142192,58.9706053 30.8143805,55.6761083 C32.2027757,52.3933773 34.1265266,49.5283415 36.5856333,47.0810009 C39.032974,44.6454263 41.933308,42.7216753 45.2866353,41.309748 C48.6281966,39.8978207 52.2697924,39.1918571 56.2114228,39.1918571 L56.2114228,39.1918571 C58.8823186,39.1918571 61.1649344,39.4095292 63.0592702,39.8448734 C64.953606,40.2802177 66.5067261,40.7626262 67.7186303,41.2920989 C68.9187685,41.8215717 69.8012231,42.3098632 70.365994,42.7569735 C70.9189989,43.2040838 71.1955013,43.439405 71.1955013,43.4629371 L71.1955013,43.4629371 C71.1955013,43.6394281 71.130788,44.1218366 71.0013613,44.9101626 C70.8719346,45.6984887 70.7307419,46.6162415 70.5777831,47.6634209 C70.4248243,48.7106003 70.2836316,49.7871949 70.1542049,50.8932046 C70.0247782,51.9992143 69.9600649,52.9581482 69.9600649,53.7700064 L69.9600649,53.7700064 C69.9600649,53.9111992 69.9130007,54.064158 69.8188722,54.2288828 C69.7365098,54.4053737 69.5070716,54.4936192 69.1305576,54.4936192 L69.1305576,54.4936192 C68.7893419,54.4936192 68.2892843,54.3700756 67.6303849,54.1229883 C66.9714855,53.8876671 66.1596273,53.6229307 65.1948103,53.3287792 C64.2299933,53.0463937 63.1239836,52.7816573 61.8767811,52.5345701 C60.6295787,52.2874828 59.2411835,52.1639391 57.7115956,52.1639391 L57.7115956,52.1639391 C55.8172598,52.1639391 54.111181,52.5051549 52.5933591,53.1875864 C51.0637712,53.8582519 49.7577384,54.7877707 48.6752608,55.9761429 C47.5810172,57.1762811 46.7397438,58.5940914 46.1514408,60.2295739 C45.5631377,61.8650563 45.2689862,63.6299654 45.2689862,65.5243012 L45.2689862,65.5243012 C45.2689862,67.5127655 45.5749038,69.2011952 46.186739,70.5895904 C46.8103402,71.9779856 47.6398475,73.1134105 48.6752608,73.995865 C49.6989081,74.8665535 50.8872803,75.5019208 52.2403773,75.9019669 C53.5934743,76.313779 55.0171676,76.5196851 56.5114574,76.5196851 L56.5114574,76.5196851 C58.2293022,76.5196851 59.9647962,76.2784808 61.7179393,75.7960723 C63.4710824,75.3254299 65.1242139,74.6606475 66.6773339,73.801725 L66.6773339,73.801725 C66.7361642,73.7664269 66.8538248,73.7487778 67.0303158,73.7487778 L67.0303158,73.7487778 C67.1715085,73.7487778 67.277403,73.8252572 67.3479994,73.9782159 C67.4185958,74.1194087 67.453894,74.3900281 67.453894,74.7900741 L67.453894,74.7900741 C67.453894,75.7078269 67.453894,76.8197196 67.453894,78.1257524 C67.453894,79.4317852 67.4480109,80.6848706 67.4362449,81.8850088 C67.4244788,83.073381 67.4009467,84.0852622 67.3656485,84.9206525 C67.3421164,85.7560429 67.3127012,86.173738 67.277403,86.173738 L67.277403,86.173738 C66.2419897,86.8561695 65.1242139,87.4150574 63.9240757,87.8504017 C62.7121714,88.2739799 61.470852,88.6151956 60.2001174,88.874049 C58.9176168,89.1329023 57.6292331,89.3093932 56.3349665,89.4035217 C55.0406998,89.4858841 53.7934973,89.5270654 52.5933591,89.5270654 L52.5933591,89.5270654 C49.2282657,89.5270654 46.0926105,88.9681775 43.1863935,87.8504017 C40.2919425,86.7326259 37.7740055,85.1500907 35.6325824,83.1027961 C33.4911593,81.0672676 31.8027296,78.619927 30.5672932,75.7607742 C29.3318568,72.9016214 28.7141386,69.736551 28.7141386,66.2655631 Z M94.545249,56.5232647 L93.1333217,73.2369541 C93.4157072,73.8134911 93.8216363,74.3959111 94.351109,74.9842142 C94.8923478,75.5725172 95.510066,76.113756 96.2042636,76.6079305 C96.9102273,77.090339 97.6809043,77.4845021 98.5162946,77.7904197 C99.3516849,78.0845712 100.210607,78.2316469 101.093062,78.2316469 L101.093062,78.2316469 C102.328498,78.2316469 103.493338,77.7551215 104.587582,76.8020706 C105.681826,75.8372536 106.64076,74.5429869 107.464384,72.9192705 C108.276242,71.2955541 108.911609,69.4423995 109.370486,67.3598067 C109.829362,65.277214 110.0588,63.1122588 110.0588,60.8649411 L110.0588,60.8649411 C110.0588,59.488312 109.94114,58.1822793 109.705818,56.9468429 C109.458731,55.7114065 109.076334,54.6348119 108.558628,53.7170592 C108.040921,52.7993064 107.370255,52.0698107 106.546631,51.5285719 C105.734773,50.975567 104.752307,50.6990646 103.599233,50.6990646 L103.599233,50.6990646 C101.728429,50.6990646 100.02235,51.2461864 98.4809964,52.3404301 C96.9278764,53.4346737 95.6159606,54.8289519 94.545249,56.5232647 L94.545249,56.5232647 Z M77.1079469,89.4035217 L77.1079469,89.4035217 C76.6961347,89.4858841 76.3784511,89.5270654 76.1548959,89.5270654 L76.1548959,89.5270654 C75.2371432,89.5270654 74.7782668,88.9799435 74.7782668,87.8856999 L74.7782668,87.8856999 C74.7782668,87.7445071 74.7841499,87.6033144 74.7959159,87.4621217 C74.807682,87.3209289 74.8312141,87.1620871 74.8665123,86.9855962 L74.8665123,86.9855962 L79.8612051,26.0079859 C79.8612051,25.9256235 79.8670881,25.843261 79.8788542,25.7608986 C79.8906203,25.6667701 79.8965033,25.5902907 79.8965033,25.5314604 L79.8965033,25.5314604 C79.8965033,25.4255659 79.8906203,25.3255544 79.8788542,25.2314259 C79.8670881,25.1490634 79.8612051,25.0784671 79.8612051,25.0196368 L79.8612051,25.0196368 C79.8612051,24.7607834 79.9553336,24.5548774 80.1435906,24.4019186 C80.3318475,24.2371937 80.808373,24.0548198 81.573167,23.8547967 L81.573167,23.8547967 L93.6980927,20.9779949 C94.0040102,20.9191646 94.4158224,20.7897379 94.9335291,20.5897149 C95.4512357,20.3896918 95.9571763,20.2896803 96.4513509,20.2896803 L96.4513509,20.2896803 C96.8278648,20.2896803 97.1808467,20.3720427 97.5102964,20.5367676 C97.8397461,20.7132585 98.0044709,21.0427082 98.0044709,21.5251167 L98.0044709,21.5251167 C98.0044709,21.583947 97.9927049,21.6427773 97.9691728,21.7016076 C97.9574067,21.7604379 97.9515237,21.8192682 97.9515237,21.8780985 L97.9515237,21.8780985 C97.9279915,22.0192913 97.8573952,22.6487755 97.7397346,23.7665513 C97.622074,24.8960931 97.4926473,26.2550732 97.3514546,27.8434914 C97.2102618,29.4436757 97.05142,31.1556375 96.8749291,32.9793769 C96.7102042,34.8031164 96.5513624,36.5091952 96.3984036,38.0976134 C96.2572109,39.6977977 96.1277842,41.0567777 96.0101236,42.1745535 C95.9042291,43.2923293 95.8336327,43.9218135 95.7983345,44.0630063 L95.7983345,44.0630063 C97.8926934,42.6863771 100.063532,41.5333032 102.310849,40.6037844 C104.546401,39.6624995 106.787835,39.1918571 109.035153,39.1918571 L109.035153,39.1918571 C111.988434,39.1918571 114.541669,39.8036922 116.694859,41.0273626 C118.848048,42.2510329 120.630606,43.8747493 122.042533,45.8985117 C123.454461,47.9222742 124.495757,50.2578373 125.166422,52.905201 C125.837088,55.5407986 126.172421,58.2705247 126.172421,61.0943793 L126.172421,61.0943793 C126.172421,63.353463 125.966515,65.6301958 125.554702,67.9245776 C125.14289,70.2071934 124.536938,72.3956808 123.736846,74.4900396 C122.94852,76.5843984 121.960171,78.5493306 120.771799,80.3848361 C119.583427,82.2321076 118.218563,83.8264089 116.677209,85.1677398 C115.135856,86.5208368 113.418011,87.5856653 111.523675,88.3622253 C109.629339,89.1387853 107.576161,89.5270654 105.364142,89.5270654 L105.364142,89.5270654 C102.693246,89.5270654 100.251789,88.9387623 98.0397691,87.7621562 C95.8277497,86.5855501 93.7745721,85.0618453 91.8802363,83.1910416 L91.8802363,83.1910416 C91.821406,83.8852392 91.7802247,84.432361 91.7566926,84.8324071 C91.7213944,85.2324531 91.627266,85.5383707 91.4743072,85.7501598 C91.3095823,85.973715 91.0742611,86.1502059 90.7683435,86.2796326 C90.4506599,86.4090592 89.9741344,86.5443689 89.3387671,86.6855617 L89.3387671,86.6855617 C89.0210835,86.7679241 88.4680786,86.9032338 87.6797525,87.0914908 C86.8914265,87.2797477 85.9442586,87.4974199 84.8382488,87.7445071 C83.7322391,87.9798284 82.5085688,88.2445647 81.1672379,88.5387162 C79.837673,88.8211017 78.484576,89.1093702 77.1079469,89.4035217 Z M154.993387,54.070041 C154.593341,57.0821526 154.216827,60.0883811 153.863845,63.0887266 C153.499097,66.0890722 153.275542,68.8952777 153.193179,71.5073432 C153.193179,72.636885 153.281425,73.5722868 153.457916,74.3135487 C153.622641,75.0665766 153.869728,75.6548796 154.199178,76.0784578 C154.528627,76.5138021 154.92279,76.8256027 155.381667,77.0138596 C155.840543,77.2021166 156.35825,77.2962451 156.934787,77.2962451 C157.852539,77.2962451 158.858538,77.1550524 159.952781,76.8726669 C161.047025,76.6020475 162.141269,76.2549487 163.235512,75.8313705 C163.576728,75.6784117 163.87088,75.5666342 164.117967,75.4960378 C164.365054,75.4254414 164.57096,75.3901433 164.735685,75.3901433 C165.029837,75.3901433 165.223977,75.5195699 165.318105,75.7784233 C165.424,76.0372766 165.524011,76.4902699 165.61814,77.1374033 C165.724034,77.7845366 165.876993,78.6552251 166.077016,79.7494688 C166.277039,80.8437125 166.606489,82.2203416 167.065365,83.8793561 C167.088897,84.0205489 167.112429,84.1440925 167.135961,84.2499871 C167.147727,84.3441156 167.153611,84.438244 167.153611,84.5323725 C167.153611,84.9324186 167.000652,85.2206871 166.694734,85.397178 C166.400583,85.5619029 165.906408,85.7619259 165.21221,85.9972471 C164.035604,86.3972932 162.794285,86.8032223 161.488252,87.2150344 C160.182219,87.6386126 158.887953,88.0210096 157.605452,88.3622253 C156.322952,88.7034411 155.093398,88.9858266 153.916792,89.2093817 C152.740186,89.4211708 151.710656,89.5270654 150.828201,89.5270654 C146.027648,89.5270654 142.527245,88.3328102 140.326992,85.9442998 C138.126738,83.5675555 137.026612,79.9377258 137.026612,75.0548105 C137.026612,74.2194202 137.056027,73.3604978 137.114857,72.4780432 C137.173687,71.6073547 137.244284,70.695485 137.326646,69.742434 C137.620798,66.8715152 137.873768,64.1535551 138.085557,61.5885539 C138.297346,59.0117866 138.520901,56.5467968 138.756223,54.1935846 L134.238055,54.1935846 C132.684935,54.1935846 131.561276,54.1288713 130.867079,53.9994446 C130.184647,53.870018 129.843432,53.6052816 129.843432,53.2052355 C129.843432,53.0875749 129.984624,52.7757743 130.26701,52.2698337 C130.549395,51.7756591 130.914143,51.17559 131.361253,50.4696264 C131.808364,49.7636627 132.290772,49.0106348 132.808479,48.2105427 C133.326186,47.3986845 133.82036,46.6397736 134.291003,45.9338099 C134.773411,45.2396123 135.185223,44.6336602 135.526439,44.1159535 C135.867655,43.5982468 136.085327,43.2805632 136.179455,43.1629026 L139.232748,43.1629026 C139.491601,40.9744153 139.697508,39.1447928 139.850466,37.6740352 C140.015191,36.1915115 140.144618,34.9619582 140.238746,33.9853751 C140.344641,33.0087921 140.438769,32.2557642 140.521132,31.7262915 C140.603494,31.1968187 140.697623,30.8026557 140.803517,30.5438023 C140.909412,30.284949 141.038838,30.1202241 141.191797,30.0496278 C141.344756,29.9672654 141.550662,29.902552 141.809515,29.8554878 C143.103782,29.5966344 144.356868,29.3554302 145.568772,29.131875 C146.76891,28.9200859 147.974931,28.6965308 149.186836,28.4612096 C150.386974,28.2376544 151.616527,27.972918 152.875496,27.6670005 C154.122698,27.3728489 155.422848,27.0198671 156.775945,26.608055 C156.858307,26.608055 156.911255,26.602172 156.934787,26.5904059 C156.970085,26.5786398 157.028915,26.5727568 157.111278,26.5727568 C157.452493,26.5727568 157.623101,26.6904174 157.623101,26.9257386 L157.623101,26.996335 C157.481909,28.5847532 157.258353,30.7850066 156.952436,33.5970951 C156.658284,36.4091837 156.322952,39.5977862 155.946438,43.1629026 L167.488943,43.1629026 C167.724264,43.1629026 167.94782,43.239382 168.159609,43.3923408 C168.383164,43.5570656 168.494941,43.827685 168.494941,44.204199 C168.494941,44.3453917 168.318451,44.8572154 167.965469,45.7396699 C167.624253,46.6338905 167.135961,47.7987306 166.500594,49.23419 L164.947474,52.7287101 C164.747451,53.1640543 164.541545,53.481738 164.329756,53.681761 C164.117967,53.881784 163.682623,54.0112107 163.023723,54.070041 L154.993387,54.070041 Z M203.387195,57.2115792 L203.422493,56.5585629 C203.140108,55.8996635 202.745945,55.228998 202.240004,54.5465665 C201.734063,53.8523689 201.151643,53.2170016 200.492744,52.6404646 C199.833845,52.0639276 199.116115,51.5991682 198.339555,51.2461864 C197.562995,50.8814385 196.745254,50.6990646 195.886331,50.6990646 L195.886331,50.6990646 C194.709725,50.6990646 193.603715,51.1873561 192.568302,52.1639391 C191.532889,53.1405222 190.626902,54.4406719 189.850342,56.0643883 C189.073782,57.6881047 188.461947,59.5412593 188.014836,61.6238521 C187.579492,63.7064448 187.36182,65.8714 187.36182,68.1187176 L187.36182,68.1187176 C187.36182,69.4953468 187.479481,70.7954965 187.714802,72.0191668 C187.961889,73.2310711 188.344286,74.2958996 188.861993,75.2136523 C189.379699,76.1431711 190.050365,76.8785499 190.873989,77.4197887 C191.685847,77.9610275 192.668313,78.2316469 193.821387,78.2316469 L193.821387,78.2316469 C195.539232,78.2316469 197.115884,77.6962912 198.551344,76.6255796 C199.986803,75.543102 201.210474,74.1429408 202.222355,72.4250959 L202.222355,72.4250959 C202.245887,71.8132608 202.287068,71.095531 202.345899,70.2719068 C202.404729,69.4365165 202.475325,68.4246352 202.557688,67.2362631 C202.651816,66.0361249 202.763594,64.6241976 202.89302,63.0004812 C203.022447,61.3767648 203.187172,59.4471308 203.387195,57.2115792 L203.387195,57.2115792 Z M222.13053,41.9098171 L217.682959,82.5909725 C217.400573,85.4383592 216.759323,88.097489 215.759208,90.5683617 C214.747327,93.0392345 213.470709,95.2983182 211.929355,97.3456128 C210.399767,99.4046734 208.652507,101.246062 206.687575,102.869778 C204.710877,104.493495 202.628284,105.864241 200.439797,106.982017 C198.239543,108.099792 195.974577,108.952832 193.644897,109.541135 C191.315216,110.129438 189.014952,110.423589 186.744102,110.423589 L186.744102,110.423589 C185.543964,110.423589 184.31441,110.382408 183.055442,110.300046 C181.784707,110.205917 180.549271,110.041192 179.349133,109.805871 C178.137228,109.558784 176.984154,109.211685 175.889911,108.764575 C174.795667,108.317465 173.819084,107.752694 172.960162,107.070262 L172.960162,107.070262 L172.960162,107.017315 C172.960162,106.876122 173.071939,106.376064 173.295494,105.517142 C173.507283,104.646454 173.760254,103.634572 174.054405,102.481498 C174.360323,101.316658 174.678006,100.11652 175.007456,98.8810837 C175.336906,97.6456473 175.619291,96.5808188 175.854613,95.6865982 L175.854613,95.6865982 C175.972273,95.2865521 176.084051,95.0159327 176.189945,94.87474 C176.307606,94.7217812 176.437033,94.6453018 176.578225,94.6453018 L176.578225,94.6453018 C176.754716,94.6453018 176.854728,94.6629509 176.87826,94.6982491 L176.87826,94.6982491 C177.71365,95.2394879 178.496093,95.6924812 179.225589,96.0572291 C179.966851,96.4102109 180.743411,96.6984794 181.555269,96.9220346 C182.378893,97.1338237 183.278997,97.2808995 184.25558,97.3632619 C185.232163,97.4573904 186.367588,97.5044546 187.661855,97.5044546 L187.661855,97.5044546 C189.673851,97.5044546 191.450526,97.1161746 192.99188,96.3396146 C194.545,95.5630546 195.886331,94.5570564 197.015873,93.32162 C198.133649,92.0861836 199.027869,90.7272036 199.698535,89.2446799 C200.3692,87.7621562 200.83396,86.3031647 201.092813,84.8677053 L201.092813,84.8677053 C199.033752,86.2443344 196.939394,87.3679932 194.809737,88.2386817 C192.68008,89.0976041 190.538656,89.5270654 188.385467,89.5270654 L188.385467,89.5270654 C185.432186,89.5270654 182.878951,88.9328793 180.725762,87.7445071 C178.572573,86.5443689 176.790014,84.9383016 175.378087,82.9263052 C173.96616,80.9260749 172.924863,78.62581 172.254198,76.0255105 C171.583532,73.4252111 171.2482,70.701368 171.2482,67.8539813 L171.2482,67.8539813 C171.2482,65.6066637 171.454106,63.3416969 171.865918,61.0590811 C172.27773,58.7764653 172.895448,56.576212 173.719072,54.458321 C174.542697,52.328664 175.554578,50.3401997 176.754716,48.4929282 C177.96662,46.6338905 179.360899,45.0160572 180.937551,43.6394281 C182.514203,42.2627989 184.267346,41.1803213 186.19698,40.3919953 C188.114848,39.5919031 190.209207,39.1918571 192.480056,39.1918571 L192.480056,39.1918571 C194.950929,39.1918571 197.245311,39.7389789 199.363202,40.8332225 C201.469327,41.9274662 203.387195,43.2805632 205.116806,44.8925135 L205.116806,44.8925135 C205.16387,44.3748069 205.205051,43.9629947 205.240349,43.6570772 C205.263882,43.3511596 205.334478,43.1158384 205.452139,42.9511135 C205.569799,42.7746226 205.763939,42.6451959 206.034559,42.5628335 C206.305178,42.468705 206.699341,42.3686935 207.217048,42.2627989 L207.217048,42.2627989 C207.534731,42.2039686 208.111268,42.080425 208.946659,41.892168 C209.782049,41.7039111 210.770398,41.4803559 211.911706,41.2215026 C213.06478,40.9626492 214.329631,40.6920298 215.706261,40.4096444 C217.08289,40.1154928 218.477168,39.8095753 219.889095,39.4918916 L219.889095,39.4918916 C220.230311,39.4095292 220.547995,39.368348 220.842146,39.368348 L220.842146,39.368348 C221.724601,39.368348 222.165828,39.944885 222.165828,41.0979589 L222.165828,41.0979589 C222.165828,41.2391516 222.165828,41.3744613 222.165828,41.503888 C222.165828,41.6333147 222.154062,41.7686244 222.13053,41.9098171 L222.13053,41.9098171 Z M253.492965,39.1918571 L253.492965,39.1918571 C256.222691,39.1918571 258.699447,39.7036807 260.923232,40.727328 C263.147018,41.7509753 265.059003,43.0746571 266.659187,44.6983735 C268.247605,46.3220899 269.477159,48.1399463 270.347847,50.1519427 C271.20677,52.1521731 271.636231,54.1582865 271.636231,56.1702829 L271.636231,56.1702829 C271.636231,57.9587241 271.089109,59.7471654 269.994865,61.5356066 C268.900622,63.3358139 267.371034,64.9536473 265.406102,66.3891067 C263.441169,67.8245661 261.076191,68.9894062 258.311167,69.8836268 C255.557909,70.7660813 252.528148,71.2073086 249.221885,71.2073086 L249.221885,71.2073086 C247.50404,71.2073086 245.69795,71.0367007 243.803614,70.695485 L243.803614,70.695485 C243.909508,71.9309214 244.268373,72.9957499 244.880208,73.8899705 C245.480278,74.7724251 246.239188,75.5019208 247.156941,76.0784578 C248.074694,76.6549948 249.11599,77.078573 250.28083,77.3491924 C251.44567,77.6198118 252.645809,77.7551215 253.881245,77.7551215 L253.881245,77.7551215 C255.257874,77.7551215 256.587439,77.6374609 257.86994,77.4021397 C259.140674,77.1550524 260.370228,76.8314857 261.5586,76.4314396 C262.735206,76.0313936 263.864748,75.5842833 264.947225,75.0901087 C266.041469,74.6077002 267.076882,74.1194087 268.053465,73.6252341 L268.053465,73.6252341 C268.312319,73.5664038 268.535874,73.5193396 268.724131,73.4840414 C268.912388,73.4369771 269.094762,73.413445 269.271253,73.413445 L269.271253,73.413445 C269.271253,73.413445 269.259487,73.6428832 269.235954,74.1017596 C269.224188,74.560636 269.218305,75.2077693 269.218305,76.0431596 C269.218305,76.8785499 269.212422,77.8845481 269.200656,79.0611542 C269.18889,80.2377603 269.165358,81.5437931 269.13006,82.9792525 L269.13006,82.9792525 C269.224188,83.1204452 269.283019,83.261638 269.306551,83.4028307 C269.330083,83.5440234 269.341849,83.661684 269.341849,83.7558125 L269.341849,83.7558125 C269.341849,84.0970283 269.030048,84.4676592 268.406447,84.8677053 C267.77108,85.2677513 266.941573,85.6854465 265.917925,86.1207907 C264.906044,86.556135 263.747087,86.9738302 262.441054,87.3738762 C261.123255,87.7739223 259.793691,88.1386702 258.45236,88.4681199 C257.099263,88.7975696 255.79323,89.0564229 254.534261,89.2446799 C253.263527,89.4329369 252.157517,89.5270654 251.216232,89.5270654 L251.216232,89.5270654 C248.109992,89.5270654 245.097881,88.9858266 242.179897,87.903349 C239.261914,86.8326374 236.679264,85.2912835 234.431946,83.279287 C232.172863,81.2672906 230.366772,78.825833 229.013675,75.9549142 C227.660578,73.0839953 226.98403,69.8542116 226.98403,66.2655631 L226.98403,66.2655631 C226.98403,62.5004236 227.631163,58.9706053 228.92543,55.6761083 C230.219697,52.3933773 232.037553,49.5283415 234.378999,47.0810009 C236.720445,44.6454263 239.514885,42.7216753 242.762318,41.309748 C246.00975,39.8978207 249.586633,39.1918571 253.492965,39.1918571 Z M252.981141,50.6637664 L252.981141,50.6637664 C251.804535,50.6637664 250.716175,50.9167367 249.716059,51.4226773 C248.72771,51.9168519 247.827607,52.6345816 247.015749,53.5758664 C246.192124,54.5053853 245.480278,55.623161 244.880208,56.9291938 C244.268373,58.2352265 243.780082,59.676569 243.415334,61.2532211 L243.415334,61.2532211 C246.368615,60.7355145 248.821839,60.1942757 250.775005,59.6295047 C252.728171,59.0529678 254.293057,58.4705478 255.469663,57.8822447 C256.646269,57.2939417 257.48166,56.7056386 257.975834,56.1173356 C258.458243,55.5290325 258.699447,54.9583786 258.699447,54.4053737 L258.699447,54.4053737 C258.699447,53.8876671 258.505307,53.3993755 258.117027,52.9404992 C257.728747,52.4816228 257.252221,52.0815767 256.687451,51.740361 C256.110914,51.3991452 255.481429,51.1344088 254.798998,50.9461518 C254.128332,50.7578949 253.52238,50.6637664 252.981141,50.6637664 Z M302.698631,39.1918571 L302.698631,39.1918571 C305.428358,39.1918571 307.905113,39.7036807 310.128899,40.727328 C312.352684,41.7509753 314.264669,43.0746571 315.864854,44.6983735 C317.453272,46.3220899 318.676942,48.1399463 319.535865,50.1519427 C320.406553,52.1521731 320.841897,54.1582865 320.841897,56.1702829 L320.841897,56.1702829 C320.841897,57.9587241 320.294775,59.7471654 319.200532,61.5356066 C318.106288,63.3358139 316.5767,64.9536473 314.611768,66.3891067 C312.646836,67.8245661 310.281858,68.9894062 307.516833,69.8836268 C304.763575,70.7660813 301.733814,71.2073086 298.427551,71.2073086 L298.427551,71.2073086 C296.709706,71.2073086 294.897733,71.0367007 292.991631,70.695485 L292.991631,70.695485 C293.109292,71.9309214 293.47404,72.9957499 294.085875,73.8899705 C294.685944,74.7724251 295.444855,75.5019208 296.362608,76.0784578 C297.28036,76.6549948 298.321657,77.078573 299.486497,77.3491924 C300.651337,77.6198118 301.851475,77.7551215 303.086911,77.7551215 L303.086911,77.7551215 C304.463541,77.7551215 305.793105,77.6374609 307.075606,77.4021397 C308.346341,77.1550524 309.570011,76.8314857 310.746617,76.4314396 C311.923223,76.0313936 313.058648,75.5842833 314.152892,75.0901087 C315.247135,74.6077002 316.282549,74.1194087 317.259132,73.6252341 L317.259132,73.6252341 C317.517985,73.5664038 317.74154,73.5193396 317.929797,73.4840414 C318.118054,73.4369771 318.294545,73.413445 318.45927,73.413445 L318.45927,73.413445 C318.45927,73.413445 318.453387,73.6428832 318.441621,74.1017596 C318.429855,74.560636 318.423972,75.2077693 318.423972,76.0431596 C318.423972,76.8785499 318.418089,77.8845481 318.406323,79.0611542 C318.382791,80.2377603 318.359258,81.5437931 318.335726,82.9792525 L318.335726,82.9792525 C318.418089,83.1204452 318.476919,83.261638 318.512217,83.4028307 C318.535749,83.5440234 318.547515,83.661684 318.547515,83.7558125 L318.547515,83.7558125 C318.547515,84.0970283 318.235715,84.4676592 317.612114,84.8677053 C316.976746,85.2677513 316.147239,85.6854465 315.123592,86.1207907 C314.099944,86.556135 312.935104,86.9738302 311.629072,87.3738762 C310.323039,87.7739223 308.999357,88.1386702 307.658026,88.4681199 C306.304929,88.7975696 304.993013,89.0564229 303.722279,89.2446799 C302.46331,89.4329369 301.357301,89.5270654 300.40425,89.5270654 L300.40425,89.5270654 C297.309776,89.5270654 294.303547,88.9858266 291.385564,87.903349 C288.467581,86.8326374 285.879047,85.2912835 283.619964,83.279287 C281.372646,81.2672906 279.572439,78.825833 278.219342,75.9549142 C276.866245,73.0839953 276.189696,69.8542116 276.189696,66.2655631 L276.189696,66.2655631 C276.189696,62.5004236 276.83683,58.9706053 278.131096,55.6761083 C279.425363,52.3933773 281.24322,49.5283415 283.584666,47.0810009 C285.926112,44.6454263 288.720551,42.7216753 291.967984,41.309748 C295.215417,39.8978207 298.792299,39.1918571 302.698631,39.1918571 Z M302.169159,50.6637664 L302.169159,50.6637664 C300.992553,50.6637664 299.910075,50.9167367 298.921726,51.4226773 C297.933377,51.9168519 297.02739,52.6345816 296.203766,53.5758664 C295.391908,54.5053853 294.685944,55.623161 294.085875,56.9291938 C293.47404,58.2352265 292.985748,59.676569 292.621,61.2532211 L292.621,61.2532211 C295.574282,60.7355145 298.027505,60.1942757 299.980671,59.6295047 C301.933837,59.0529678 303.498724,58.4705478 304.67533,57.8822447 C305.851936,57.2939417 306.687326,56.7056386 307.181501,56.1173356 C307.663909,55.5290325 307.905113,54.9583786 307.905113,54.4053737 L307.905113,54.4053737 C307.905113,53.8876671 307.710973,53.3993755 307.322693,52.9404992 C306.934413,52.4816228 306.452005,52.0815767 305.875468,51.740361 C305.310697,51.3991452 304.687096,51.1344088 304.004664,50.9461518 C303.333999,50.7578949 302.722164,50.6637664 302.169159,50.6637664 Z M349.433425,21.8780985 L347.897954,36.8268788 C347.686165,38.8388752 347.474376,40.8802868 347.262587,42.9511135 C347.050798,45.0219402 346.844892,47.0045215 346.644869,48.8988573 C346.444846,50.7931931 346.256589,52.5463361 346.080098,54.1582865 C345.903607,55.7584707 345.762414,57.0762695 345.65652,58.1116829 L348.621567,54.846601 L353.457418,49.1988918 C354.057487,48.5046942 354.64579,47.8163797 355.222327,47.1339481 C355.787098,46.4397505 356.304805,45.8279154 356.775447,45.2984426 C357.234323,44.7689699 357.604954,44.3218596 357.88734,43.9571117 C358.169725,43.6041299 358.340333,43.3982238 358.399163,43.3393935 L375.730571,42.1216062 C375.812934,42.0980741 375.907062,42.086308 376.012957,42.086308 C376.107085,42.086308 376.195331,42.086308 376.277693,42.086308 C376.771867,42.086308 377.018955,42.2157347 377.018955,42.474588 C377.018955,42.6746111 376.71892,43.1217214 376.118851,43.815919 L362.634945,58.8882429 C362.02311,59.5471423 361.311264,60.3178193 360.499405,61.2002739 C359.675781,62.0709624 358.763911,63.0416624 357.763796,64.1123739 L364.046873,71.5955886 L374.901064,83.279287 C374.995192,83.4204798 375.124619,83.5263743 375.289344,83.5969707 C375.465835,83.6675671 375.63056,83.7322804 375.783518,83.7911107 C375.948243,83.849941 376.095319,83.9146543 376.224746,83.9852507 C376.354172,84.0558471 376.418886,84.1676246 376.418886,84.3205834 C376.418886,84.426478 376.395354,84.5088404 376.348289,84.5676707 C376.301225,84.626501 376.165915,84.7441616 375.94236,84.9206525 C375.683507,85.1206756 375.230514,85.4089441 374.58338,85.785458 C373.936247,86.1502059 373.183219,86.562018 372.324297,87.0208944 C371.465374,87.4797708 370.547621,87.9504132 369.571038,88.4328217 C368.594455,88.9034641 367.641404,89.3329254 366.711885,89.7212054 C365.794133,90.1094854 364.946976,90.427169 364.170416,90.6742563 C363.405622,90.9095775 362.805553,91.0272381 362.370209,91.0272381 C362.028993,91.0272381 361.693661,90.9448757 361.364211,90.7801508 C361.022995,90.6036599 360.652364,90.2859763 360.252318,89.8270999 C359.711079,89.1917326 359.028648,88.3681084 358.205023,87.3562271 C357.393165,86.3325798 356.510711,85.208921 355.55766,83.9852507 C354.616375,82.7615804 353.645675,81.4967288 352.64556,80.1906961 C351.657211,78.8846633 350.710043,77.6374609 349.804056,76.4490887 C348.898069,75.2607166 348.080328,74.184122 347.350832,73.219305 C346.621337,72.254488 346.056566,71.483811 345.65652,70.9072741 C345.503561,71.0484668 345.356485,71.1602444 345.215292,71.2426068 C345.0741,71.3132032 344.93879,71.4014486 344.809363,71.5073432 C344.679937,71.6250038 344.574042,71.7661965 344.49168,71.9309214 C344.397551,72.0838802 344.350487,72.3015523 344.350487,72.5839377 C344.350487,72.7015983 344.326955,73.025165 344.27989,73.5546378 C344.22106,74.0958766 344.156347,74.7312438 344.08575,75.4607396 C344.003388,76.1902354 343.921026,76.9726784 343.838663,77.8080688 C343.756301,78.6434591 343.679821,79.4259021 343.609225,80.1553979 C343.538629,80.8848937 343.473915,81.5143779 343.415085,82.0438507 C343.356255,82.5850895 343.32684,82.9086561 343.32684,83.0145507 C343.32684,83.2145737 343.332723,83.3792986 343.344489,83.5087252 C343.356255,83.6381519 343.362138,83.7616955 343.362138,83.8793561 C343.362138,84.1970398 343.256243,84.432361 343.044454,84.5853198 C342.832665,84.7500447 342.309075,84.9441847 341.473685,85.1677398 L330.178267,88.8387508 C329.860583,88.9564114 329.442888,89.0976041 328.925181,89.262329 C328.407474,89.4388199 327.907417,89.5270654 327.425008,89.5270654 C327.024962,89.5270654 326.67198,89.4270538 326.366063,89.2270308 C326.060145,89.0270078 325.907186,88.6504938 325.907186,88.097489 L331.343107,26.0079859 C331.343107,25.8667932 331.331341,25.7314835 331.307808,25.6020568 C331.27251,25.4726301 331.254861,25.3373204 331.254861,25.1961277 C331.254861,24.9372743 331.366639,24.7019531 331.590194,24.490164 C331.801983,24.2666089 332.296158,24.0548198 333.072718,23.8547967 L345.179994,20.9779949 C345.497678,20.9191646 345.915373,20.7897379 346.43308,20.5897149 C346.950786,20.3896918 347.450844,20.2896803 347.933252,20.2896803 C348.309766,20.2896803 348.662748,20.3720427 348.992198,20.5367676 C349.321648,20.7132585 349.486372,21.0427082 349.486372,21.5251167 C349.486372,21.583947 349.480489,21.6427773 349.468723,21.7016076 C349.445191,21.7604379 349.433425,21.8192682 349.433425,21.8780985 Z"
                    id="形状" fill="#4D6EFF" fill-rule="nonzero"></path>
                <path d="M400.5,4.5 L400.5,125.5 L4.5,125.5 L4.5,4.5 L400.5,4.5 Z" id="矩形"
                    stroke="#020417" stroke-width="9"></path>
            </g>
        </g>
    </g>
</svg>